<svg xmlns="http://www.w3.org/2000/svg" class="icon icon-tabler icon-tabler-book-download" width="24" height="24" viewBox="0 0 24 24" stroke-width="2" stroke="currentColor" fill="none" stroke-linecap="round" stroke-linejoin="round">
   <path stroke="none" d="M0 0h24v24H0z" fill="none"></path>
   <path class="light_border" d="M12 20h-6a2 2 0 0 1 -2 -2v-12a2 2 0 0 1 2 -2h12v5"></path>
   <path class="light_border" d="M13 16h-7a2 2 0 0 0 -2 2"></path>
   <path class="light_border" d="M15 19l3 3l3 -3"></path>
   <path class="light_border" d="M18 22v-9"></path>
   <path class="dark_border" d="M12 20h-6a2 2 0 0 1 -2 -2v-12a2 2 0 0 1 2 -2h12v5"></path>
   <path class="dark_border" d="M13 16h-7a2 2 0 0 0 -2 2"></path>
   <path class="dark_border" d="M15 19l3 3l3 -3"></path>
   <path class="dark_border" d="M18 22v-9"></path>
</svg>